<?xml version="1.0" encoding="utf-8"?>
<!-- Generator: Adobe Illustrator 24.0.1, SVG Export Plug-In . SVG Version: 6.00 Build 0)  -->
<svg version="1.1" id="Layer_1" xmlns:svgjs="http://svgjs.com/svgjs"
	 xmlns="http://www.w3.org/2000/svg" xmlns:xlink="http://www.w3.org/1999/xlink" x="0px" y="0px" viewBox="0 0 256 256"
	 style="enable-background:new 0 0 256 256;" xml:space="preserve">
<style type="text/css">
	.st0{fill:#EE5321;}
</style>
<polygon class="st0" points="223.1,38.9 223.1,187.2 201.7,171.3 201.7,23 180.6,7.3 180.6,155.7 145.7,129.8 138.6,124.6 
	138.6,52.8 164.7,52.8 164.7,31.7 91.3,31.7 91.3,52.8 117.4,52.8 117.4,124.7 110.4,129.8 75.4,155.8 75.4,5.7 54.2,21.3 
	54.2,171.5 32.7,187.4 32.7,37.4 11.9,52.7 11.9,228.8 32.7,213.5 54.2,197.5 54.2,250 75.4,234.3 117.4,203.2 117.4,177.1 
	110.2,182.5 75.4,208.2 75.4,181.9 117.4,150.8 128.1,142.9 138.6,150.7 180.6,181.8 180.6,208.6 138.6,177.5 138.6,203.5 
	180.6,234.6 201.7,250.3 201.7,197.4 223.1,213.3 244.1,228.7 244.1,54.3 "/>
</svg>
